%TF.GenerationSoftware,KiCad,Pcbnew,10.0.4*%
%TF.CreationDate,2026-07-10T19:14:57+07:00*%
%TF.ProjectId,krylo,6b72796c-6f2e-46b6-9963-61645f706362,0.1*%
%TF.SameCoordinates,Original*%
%TF.FileFunction,Paste,Top*%
%TF.FilePolarity,Positive*%
%FSLAX46Y46*%
G04 Gerber Fmt 4.6, Leading zero omitted, Abs format (unit mm)*
G04 Created by KiCad (PCBNEW 10.0.4) date 2026-07-10 19:14:57*
%MOMM*%
%LPD*%
G01*
G04 APERTURE LIST*
G04 Aperture macros list*
%AMRotRect*
0 Rectangle, with rotation*
0 The origin of the aperture is its center*
0 $1 length*
0 $2 width*
0 $3 Rotation angle, in degrees counterclockwise*
0 Add horizontal line*
21,1,$1,$2,0,0,$3*%
%AMFreePoly0*
4,1,6,1.300000,0.000000,0.000000,-1.300000,-1.300000,-1.300000,-1.300000,1.300000,1.300000,1.300000,1.300000,0.000000,1.300000,0.000000,$1*%
G04 Aperture macros list end*
%ADD10R,1.143000X0.635000*%
%ADD11R,1.800000X1.500000*%
%ADD12FreePoly0,0.000000*%
%ADD13R,2.600000X2.600000*%
%ADD14RotRect,1.800000X1.500000X350.000000*%
%ADD15FreePoly0,350.000000*%
%ADD16RotRect,2.600000X2.600000X350.000000*%
%ADD17FreePoly0,356.000000*%
%ADD18RotRect,2.600000X2.600000X356.000000*%
%ADD19FreePoly0,8.000000*%
%ADD20RotRect,2.600000X2.600000X8.000000*%
%ADD21RotRect,1.800000X1.500000X356.000000*%
%ADD22R,0.900000X1.000000*%
%ADD23RotRect,1.800000X1.500000X8.000000*%
%ADD24RotRect,1.800000X1.500000X4.000000*%
%ADD25R,0.762000X0.838200*%
%ADD26R,0.609600X0.889000*%
%ADD27FreePoly0,3.000000*%
%ADD28RotRect,2.600000X2.600000X3.000000*%
%ADD29R,2.800000X1.000000*%
%ADD30R,1.000000X0.700000*%
G04 APERTURE END LIST*
D10*
%TO.C,JP10*%
X103274743Y-105254425D03*
X103274743Y-106255185D03*
%TD*%
D11*
%TO.C,D8*%
X151270000Y-61380000D03*
X154670000Y-61380000D03*
%TD*%
%TO.C,D6*%
X133220000Y-102670000D03*
X136620000Y-102670000D03*
%TD*%
D12*
%TO.C,SW8*%
X156219862Y-52415117D03*
D13*
X144669862Y-54615117D03*
%TD*%
D14*
%TO.C,D14*%
X207122460Y-101519738D03*
X210470806Y-102110142D03*
%TD*%
D15*
%TO.C,SW16*%
X192787032Y-107159777D03*
D16*
X181030477Y-107320717D03*
%TD*%
D12*
%TO.C,SW6*%
X138227431Y-93691867D03*
D13*
X126677431Y-95891867D03*
%TD*%
D10*
%TO.C,JP6*%
X98224743Y-105249425D03*
X98224743Y-106250185D03*
%TD*%
D11*
%TO.C,D2*%
X115290000Y-90370000D03*
X118690000Y-90370000D03*
%TD*%
%TO.C,D5*%
X133220000Y-85670000D03*
X136620000Y-85670000D03*
%TD*%
D10*
%TO.C,JP4*%
X105800000Y-106255185D03*
X105800000Y-105254425D03*
%TD*%
D17*
%TO.C,SW13*%
X174619367Y-97356910D03*
D18*
X162944038Y-98745864D03*
%TD*%
D14*
%TO.C,D16*%
X186378343Y-115131235D03*
X189726689Y-115721639D03*
%TD*%
D12*
%TO.C,SW9*%
X156219862Y-69384448D03*
D13*
X144669862Y-71584448D03*
%TD*%
D17*
%TO.C,SW11*%
X176983082Y-63453521D03*
D18*
X165307753Y-64842475D03*
%TD*%
D17*
%TO.C,SW12*%
X175783579Y-80422857D03*
D18*
X164108250Y-81811811D03*
%TD*%
D12*
%TO.C,SW10*%
X156219862Y-86389060D03*
D13*
X144669862Y-88589060D03*
%TD*%
D19*
%TO.C,SW3*%
X100359517Y-120428148D03*
D20*
X89228102Y-124214187D03*
%TD*%
D11*
%TO.C,D9*%
X151270000Y-78380000D03*
X154670000Y-78380000D03*
%TD*%
D21*
%TO.C,D12*%
X170228282Y-88972828D03*
X173620000Y-89210000D03*
%TD*%
D22*
%TO.C,RESET1*%
X107050000Y-88100000D03*
X107050000Y-94700000D03*
X102950000Y-88100000D03*
X102950000Y-94700000D03*
%TD*%
D14*
%TO.C,D15*%
X189329997Y-98340831D03*
X192678343Y-98931235D03*
%TD*%
D11*
%TO.C,D10*%
X151270000Y-95380000D03*
X154670000Y-95380000D03*
%TD*%
D23*
%TO.C,D3*%
X96683088Y-129897188D03*
X100050000Y-129424000D03*
%TD*%
D24*
%TO.C,D7*%
X115438282Y-127901172D03*
X118830000Y-127664000D03*
%TD*%
D15*
%TO.C,SW14*%
X213481968Y-93544444D03*
D16*
X201725413Y-93705384D03*
%TD*%
D11*
%TO.C,D4*%
X133220000Y-68670000D03*
X136620000Y-68670000D03*
%TD*%
D12*
%TO.C,SW2*%
X120235000Y-81368484D03*
D13*
X108685000Y-83568484D03*
%TD*%
D12*
%TO.C,SW4*%
X138227431Y-59682647D03*
D13*
X126677431Y-61882647D03*
%TD*%
D10*
%TO.C,JP8*%
X100749743Y-105254425D03*
X100749743Y-106255185D03*
%TD*%
D11*
%TO.C,D1*%
X115290000Y-73270000D03*
X118690000Y-73270000D03*
%TD*%
D21*
%TO.C,D11*%
X171428282Y-71972828D03*
X174820000Y-72210000D03*
%TD*%
D25*
%TO.C,BT1*%
X131500002Y-110307899D03*
X127999998Y-110307899D03*
D26*
X130350000Y-114082900D03*
X129150001Y-114082900D03*
%TD*%
D12*
%TO.C,SW1*%
X120235000Y-64363872D03*
D13*
X108685000Y-66563872D03*
%TD*%
D27*
%TO.C,SW7*%
X119919113Y-118687149D03*
D28*
X108500081Y-121488614D03*
%TD*%
D29*
%TO.C,SW_PWR1*%
X103325000Y-78312500D03*
X103325000Y-86262500D03*
D30*
X105225000Y-79912500D03*
X105225000Y-82912500D03*
X105225000Y-84412500D03*
%TD*%
D10*
%TO.C,JP2*%
X108325000Y-106255185D03*
X108325000Y-105254425D03*
%TD*%
D12*
%TO.C,SW5*%
X138227431Y-76687259D03*
D13*
X126677431Y-78887259D03*
%TD*%
D21*
%TO.C,D13*%
X169032423Y-105954242D03*
X172424141Y-106191414D03*
%TD*%
D15*
%TO.C,SW15*%
X195750491Y-90417396D03*
D16*
X183993936Y-90578336D03*
%TD*%
M02*
