%TF.GenerationSoftware,KiCad,Pcbnew,10.0.4*%
%TF.CreationDate,2026-07-10T18:49:07+07:00*%
%TF.ProjectId,krylo,6b72796c-6f2e-46b6-9963-61645f706362,0.1*%
%TF.SameCoordinates,Original*%
%TF.FileFunction,Profile,NP*%
%FSLAX46Y46*%
G04 Gerber Fmt 4.6, Leading zero omitted, Abs format (unit mm)*
G04 Created by KiCad (PCBNEW 10.0.4) date 2026-07-10 18:49:07*
%MOMM*%
%LPD*%
G01*
G04 APERTURE LIST*
%TA.AperFunction,Profile*%
%ADD10C,0.100000*%
%TD*%
G04 APERTURE END LIST*
D10*
X85291540Y-113798854D02*
G75*
G02*
X85867590Y-113061599I643660J90754D01*
G01*
X85291540Y-113798854D02*
X88512328Y-136628560D01*
X85867587Y-113061574D02*
X90717310Y-112554612D01*
X89224131Y-137184173D02*
G75*
G02*
X88512243Y-136628572I-68131J646573D01*
G01*
X89224131Y-137184173D02*
X126422896Y-133260811D01*
X91292929Y-97106329D02*
X91299731Y-111907836D01*
X91292929Y-97106329D02*
G75*
G02*
X91942556Y-96456629I649971J-271D01*
G01*
X91299731Y-111907836D02*
G75*
G02*
X90717309Y-112554605I-650031J-264D01*
G01*
X91942556Y-96456628D02*
X98781116Y-96450251D01*
X99240130Y-96259870D02*
G75*
G02*
X98781116Y-96450231I-459530J459470D01*
G01*
X99240130Y-96259870D02*
X101199827Y-94300173D01*
X101390207Y-93840849D02*
G75*
G02*
X101199810Y-94300156I-649807J249D01*
G01*
X101390207Y-93840849D02*
X101399914Y-72440444D01*
X101399914Y-72440444D02*
G75*
G02*
X101590320Y-71981144I649786J-256D01*
G01*
X101590295Y-71981119D02*
X106694620Y-66876794D01*
X106885000Y-62214000D02*
G75*
G02*
X107535000Y-61564000I650000J0D01*
G01*
X106885000Y-66417175D02*
G75*
G02*
X106694612Y-66876786I-649900J-25D01*
G01*
X106885000Y-66417175D02*
X106885000Y-62214000D01*
X123416761Y-61564000D02*
X107535000Y-61564000D01*
X123876381Y-61373619D02*
G75*
G02*
X123416761Y-61563985I-459681J459819D01*
G01*
X123876381Y-61373619D02*
X125822362Y-59427638D01*
X126012742Y-57534371D02*
G75*
G02*
X126662742Y-56884342I650058J-29D01*
G01*
X126012742Y-58968019D02*
G75*
G02*
X125822361Y-59427637I-650042J19D01*
G01*
X126012742Y-58968019D02*
X126012742Y-57534371D01*
X126662742Y-56884371D02*
X140346390Y-56884371D01*
X127000109Y-121049393D02*
G75*
G02*
X127190477Y-120589497I649991J293D01*
G01*
X127004781Y-132614191D02*
G75*
G02*
X126422895Y-133260804I-649981J-209D01*
G01*
X127004781Y-132614191D02*
X127000109Y-121049393D01*
X127190490Y-120589510D02*
X139189620Y-108590380D01*
X139189620Y-108590380D02*
G75*
G02*
X139649239Y-108400015I459680J-459820D01*
G01*
X139649239Y-108400000D02*
X143551730Y-108400000D01*
X140806010Y-56693990D02*
G75*
G02*
X140346390Y-56884373I-459610J459590D01*
G01*
X140806010Y-56693990D02*
X142659620Y-54840380D01*
X142850000Y-50255000D02*
G75*
G02*
X143500000Y-49605000I650000J0D01*
G01*
X142850000Y-54380761D02*
G75*
G02*
X142659598Y-54840358I-649800J-39D01*
G01*
X142850000Y-54380761D02*
X142850000Y-50255000D01*
X143500000Y-49605000D02*
X162980728Y-49600129D01*
X144200112Y-103849726D02*
G75*
G02*
X144390914Y-103389465I649988J226D01*
G01*
X144201730Y-107749730D02*
G75*
G02*
X143551730Y-108400030I-650030J-270D01*
G01*
X144201730Y-107749730D02*
X144200112Y-103849726D01*
X144390889Y-103389440D02*
X146330587Y-101453085D01*
X146330587Y-101453085D02*
G75*
G02*
X146789810Y-101263107I459213J-460015D01*
G01*
X146789810Y-101263100D02*
X158393709Y-101263100D01*
X158393709Y-101263100D02*
G75*
G02*
X158853507Y-101453669I-9J-650000D01*
G01*
X160977792Y-103579640D02*
X158853512Y-101453664D01*
X160977792Y-103579640D02*
G75*
G02*
X161168009Y-104039103I-459792J-459460D01*
G01*
X161167725Y-110493999D02*
X161167989Y-104039103D01*
X161772214Y-111142430D02*
G75*
G02*
X161167776Y-110493999I45486J648330D01*
G01*
X161772214Y-111142430D02*
X178484170Y-112315430D01*
X162980728Y-49600129D02*
G75*
G02*
X163440509Y-49790511I172J-649971D01*
G01*
X163440510Y-49790510D02*
X173920230Y-60270230D01*
X174334681Y-60459039D02*
G75*
G02*
X173920251Y-60270209I45219J648439D01*
G01*
X174334681Y-60459039D02*
X183313379Y-61084470D01*
X178484170Y-112315430D02*
G75*
G02*
X179078817Y-113076503I-45470J-648370D01*
G01*
X178586329Y-119620676D02*
G75*
G02*
X178059544Y-118867681I113371J640076D01*
G01*
X178586329Y-119620676D02*
X195566745Y-122627844D01*
X179078819Y-113076503D02*
X178059572Y-118867686D01*
X182603426Y-83199897D02*
G75*
G02*
X182467161Y-82754909I512174J400197D01*
G01*
X183313379Y-61084470D02*
G75*
G02*
X183916656Y-61777705I-45179J-648430D01*
G01*
X183916665Y-61777706D02*
X182467179Y-82754910D01*
X184304199Y-85376786D02*
X182603426Y-83199897D01*
X184703486Y-85616723D02*
G75*
G02*
X184304194Y-85376790I112914J640123D01*
G01*
X184703486Y-85616723D02*
X220024269Y-91847488D01*
X196320288Y-122100320D02*
G75*
G02*
X195566746Y-122627841I-640188J112520D01*
G01*
X196320288Y-122100320D02*
X197141038Y-117430390D01*
X197141038Y-117430390D02*
G75*
G02*
X197408406Y-117010462I640162J-112510D01*
G01*
X210362938Y-107939591D02*
X197408401Y-117010455D01*
X210362938Y-107939591D02*
G75*
G02*
X210848175Y-107831799I372862J-532409D01*
G01*
X217024716Y-108916293D02*
X210848169Y-107831833D01*
X217777687Y-108388625D02*
G75*
G02*
X217024711Y-108916323I-640187J112425D01*
G01*
X220024269Y-91847488D02*
G75*
G02*
X220551500Y-92600070I-112969J-640112D01*
G01*
X220551544Y-92600078D02*
X217777687Y-108388625D01*
M02*
