M48
; DRILL file KiCad 10.0.4 date 2026-07-10T19:13:54
; FORMAT={-:-/ absolute / metric / decimal}
; #@! TF.CreationDate,2026-07-10T19:13:54+07:00
; #@! TF.GenerationSoftware,Kicad,Pcbnew,10.0.4
; #@! TF.FileFunction,NonPlated,1,2,NPTH
FMAT,2
METRIC
; #@! TA.AperFunction,NonPlated,NPTH,ComponentDrill
T1C0.700
; #@! TA.AperFunction,NonPlated,NPTH,ComponentDrill
T2C1.702
; #@! TA.AperFunction,NonPlated,NPTH,ComponentDrill
T3C3.000
; #@! TA.AperFunction,NonPlated,NPTH,ComponentDrill
T4C3.429
%
G90
G05
T1
X103.325Y-80.662
X103.325Y-83.662
T2
X92.498Y-127.541
X103.391Y-126.011
X111.46Y-70.314
X111.46Y-87.318
X111.468Y-125.088
X122.452Y-124.513
X122.46Y-70.314
X122.46Y-87.318
X129.452Y-65.633
X129.452Y-82.637
X129.452Y-99.642
X140.452Y-65.633
X140.452Y-82.637
X140.452Y-99.642
X147.445Y-58.365
X147.445Y-75.334
X147.445Y-92.339
X158.445Y-58.365
X158.445Y-75.334
X158.445Y-92.339
X165.451Y-102.68
X166.615Y-85.746
X167.814Y-68.777
X176.424Y-103.448
X177.588Y-86.514
X178.788Y-69.544
X183.112Y-111.496
X186.076Y-94.753
X193.945Y-113.406
X196.908Y-96.663
X203.807Y-97.88
X214.64Y-99.79
T3
X92.471Y-123.758
X97.116Y-120.884
X102.374Y-122.367
X111.771Y-121.317
X111.96Y-66.564
X111.96Y-83.568
X116.649Y-118.859
X116.96Y-64.364
X116.96Y-81.368
X121.757Y-120.794
X121.96Y-66.564
X121.96Y-83.568
X129.952Y-61.883
X129.952Y-78.887
X129.952Y-95.892
X134.952Y-59.683
X134.952Y-76.687
X134.952Y-93.692
X139.952Y-61.883
X139.952Y-78.887
X139.952Y-95.892
X147.945Y-54.615
X147.945Y-71.584
X147.945Y-88.589
X152.945Y-52.415
X152.945Y-69.384
X152.945Y-86.389
X157.945Y-54.615
X157.945Y-71.584
X157.945Y-88.589
X166.211Y-98.974
X167.375Y-82.04
X168.575Y-65.071
X171.352Y-97.128
X172.517Y-80.194
X173.716Y-63.225
X176.187Y-99.672
X177.351Y-82.738
X178.55Y-65.768
X184.256Y-107.889
X187.219Y-91.147
X189.562Y-106.591
X192.525Y-89.849
X194.104Y-109.626
X197.067Y-92.884
X204.951Y-94.274
X210.257Y-92.976
X214.799Y-96.011
T4
X97.979Y-127.024
X116.96Y-70.564
X116.96Y-87.568
X116.973Y-125.05
X134.952Y-65.883
X134.952Y-82.887
X134.952Y-99.892
X152.945Y-58.615
X152.945Y-75.584
X152.945Y-92.589
X170.92Y-103.313
X172.084Y-86.379
X173.284Y-69.41
X188.485Y-112.697
X191.449Y-95.955
X209.18Y-99.082
M30
