M48
; DRILL file KiCad 10.0.4 date 2026-07-10T19:13:54
; FORMAT={-:-/ absolute / metric / decimal}
; #@! TF.CreationDate,2026-07-10T19:13:54+07:00
; #@! TF.GenerationSoftware,Kicad,Pcbnew,10.0.4
; #@! TF.FileFunction,Plated,1,2,PTH
FMAT,2
METRIC
; #@! TA.AperFunction,Plated,PTH,ViaDrill
T1C0.300
; #@! TA.AperFunction,Plated,PTH,ComponentDrill
T2C0.300
; #@! TA.AperFunction,Plated,PTH,ComponentDrill
T3C1.092
; #@! TA.AperFunction,Plated,PTH,ComponentDrill
T4C1.270
; #@! TA.AperFunction,Plated,PTH,ComponentDrill
T5C3.800
%
G90
G05
T1
X95.6Y-116.0
X98.75Y-134.4
X101.995Y-101.6
X104.3Y-82.25
X104.545Y-101.6
X106.2Y-82.25
X106.45Y-101.6
X106.7Y-107.9
X107.3Y-108.5
X114.7Y-99.565
X115.175Y-92.311
X115.6Y-129.776
X115.6Y-131.244
X115.923Y-112.152
X119.75Y-76.85
X127.15Y-119.2
X133.21Y-70.665
X133.24Y-87.754
X133.26Y-104.704
X136.925Y-104.325
X138.3Y-105.665
X151.27Y-63.454
X151.27Y-97.404
X151.29Y-80.424
X157.4Y-97.7
X157.4Y-99.652
X169.03Y-107.9
X169.077Y-110.075
X170.21Y-91.144
X171.41Y-74.114
X181.595Y-97.135
X181.62Y-85.82
X185.91Y-117.202
X189.2Y-100.572
X206.91Y-103.7
T2
X96.683Y-129.897
X100.05Y-129.424
X102.95Y-88.1
X102.95Y-94.7
X107.05Y-88.1
X107.05Y-94.7
X115.29Y-73.27
X115.29Y-90.37
X115.438Y-127.901
X118.69Y-73.27
X118.69Y-90.37
X118.83Y-127.664
X129.15Y-114.083
X130.35Y-114.083
X133.22Y-68.67
X133.22Y-85.67
X133.22Y-102.67
X136.62Y-68.67
X136.62Y-85.67
X136.62Y-102.67
X151.27Y-61.38
X151.27Y-78.38
X151.27Y-95.38
X154.67Y-61.38
X154.67Y-78.38
X154.67Y-95.38
X169.032Y-105.954
X170.228Y-88.973
X171.428Y-71.973
X172.424Y-106.191
X173.62Y-89.21
X174.82Y-72.21
X186.378Y-115.131
X189.33Y-98.341
X189.727Y-115.722
X192.678Y-98.931
X207.122Y-101.52
X210.471Y-102.11
T3
X95.603Y-98.328
X95.603Y-113.568
X98.143Y-98.328
X98.143Y-113.568
X100.683Y-98.328
X100.683Y-113.568
X103.223Y-98.328
X103.223Y-113.568
X105.763Y-98.328
X105.763Y-113.568
X108.303Y-98.328
X108.303Y-113.568
X110.843Y-98.328
X110.843Y-113.568
X113.383Y-98.328
X113.383Y-113.568
X115.923Y-98.328
X115.923Y-113.568
X118.463Y-98.328
X118.463Y-113.568
X121.003Y-98.328
X121.003Y-113.568
X123.543Y-98.328
X123.543Y-113.568
T4
X93.522Y-131.235
X98.766Y-132.619
X103.425Y-129.843
X111.96Y-74.114
X111.96Y-91.118
X112.166Y-128.857
X116.96Y-76.214
X116.96Y-93.218
X117.269Y-130.692
X121.96Y-74.114
X121.96Y-91.118
X122.152Y-128.334
X129.952Y-69.433
X129.952Y-86.437
X129.952Y-103.442
X134.952Y-71.533
X134.952Y-88.537
X134.952Y-105.542
X139.952Y-69.433
X139.952Y-86.437
X139.952Y-103.442
X147.945Y-62.165
X147.945Y-79.134
X147.945Y-96.139
X152.945Y-64.265
X152.945Y-81.234
X152.945Y-98.239
X157.945Y-62.165
X157.945Y-79.134
X157.945Y-96.139
X165.684Y-106.506
X166.849Y-89.572
X168.048Y-72.603
X170.526Y-108.95
X171.69Y-92.016
X172.889Y-75.046
X175.66Y-107.203
X176.824Y-90.269
X178.024Y-73.3
X182.945Y-115.325
X185.908Y-98.582
X187.504Y-118.261
X190.468Y-101.519
X192.793Y-117.061
X195.756Y-100.319
X203.64Y-101.709
X208.199Y-104.646
X213.488Y-103.446
T5
X89.7Y-116.7
X105.0Y-74.2
X165.5Y-57.35
X202.2Y-108.9
M30
