%TF.GenerationSoftware,KiCad,Pcbnew,10.0.4*%
%TF.CreationDate,2026-07-10T19:14:57+07:00*%
%TF.ProjectId,krylo,6b72796c-6f2e-46b6-9963-61645f706362,0.1*%
%TF.SameCoordinates,Original*%
%TF.FileFunction,Soldermask,Top*%
%TF.FilePolarity,Negative*%
%FSLAX46Y46*%
G04 Gerber Fmt 4.6, Leading zero omitted, Abs format (unit mm)*
G04 Created by KiCad (PCBNEW 10.0.4) date 2026-07-10 19:14:57*
%MOMM*%
%LPD*%
G01*
G04 APERTURE LIST*
G04 Aperture macros list*
%AMRotRect*
0 Rectangle, with rotation*
0 The origin of the aperture is its center*
0 $1 length*
0 $2 width*
0 $3 Rotation angle, in degrees counterclockwise*
0 Add horizontal line*
21,1,$1,$2,0,0,$3*%
%AMFreePoly0*
4,1,6,1.300000,0.000000,0.000000,-1.300000,-1.300000,-1.300000,-1.300000,1.300000,1.300000,1.300000,1.300000,0.000000,1.300000,0.000000,$1*%
G04 Aperture macros list end*
%ADD10R,1.143000X0.635000*%
%ADD11R,1.800000X1.500000*%
%ADD12C,1.701800*%
%ADD13C,3.000000*%
%ADD14C,3.429000*%
%ADD15C,2.032000*%
%ADD16FreePoly0,0.000000*%
%ADD17R,2.600000X2.600000*%
%ADD18RotRect,1.800000X1.500000X350.000000*%
%ADD19FreePoly0,350.000000*%
%ADD20RotRect,2.600000X2.600000X350.000000*%
%ADD21FreePoly0,356.000000*%
%ADD22RotRect,2.600000X2.600000X356.000000*%
%ADD23C,6.200000*%
%ADD24FreePoly0,8.000000*%
%ADD25RotRect,2.600000X2.600000X8.000000*%
%ADD26RotRect,1.800000X1.500000X356.000000*%
%ADD27R,0.900000X1.000000*%
%ADD28RotRect,1.800000X1.500000X8.000000*%
%ADD29RotRect,1.800000X1.500000X4.000000*%
%ADD30R,0.762000X0.838200*%
%ADD31R,0.609600X0.889000*%
%ADD32FreePoly0,3.000000*%
%ADD33RotRect,2.600000X2.600000X3.000000*%
%ADD34R,2.800000X1.000000*%
%ADD35C,0.900000*%
%ADD36R,1.000000X0.700000*%
%ADD37C,1.752600*%
G04 APERTURE END LIST*
D10*
%TO.C,JP10*%
X103274743Y-105254425D03*
X103274743Y-106255185D03*
%TD*%
D11*
%TO.C,D8*%
X151270000Y-61380000D03*
X154670000Y-61380000D03*
%TD*%
%TO.C,D6*%
X133220000Y-102670000D03*
X136620000Y-102670000D03*
%TD*%
D12*
%TO.C,SW8*%
X147444862Y-58365117D03*
D13*
X147944862Y-54615117D03*
X152944862Y-52415117D03*
D14*
X152944862Y-58615117D03*
D13*
X157944862Y-54615117D03*
D12*
X158444862Y-58365117D03*
D15*
X152944862Y-64265117D03*
D16*
X156219862Y-52415117D03*
D17*
X144669862Y-54615117D03*
D15*
X147944862Y-62165117D03*
X157944862Y-62165117D03*
%TD*%
D18*
%TO.C,D14*%
X207122460Y-101519738D03*
X210470806Y-102110142D03*
%TD*%
D12*
%TO.C,SW16*%
X183112137Y-111495620D03*
D13*
X184255722Y-107889415D03*
X189561787Y-106591079D03*
D14*
X188485168Y-112696887D03*
D13*
X194103799Y-109625897D03*
D12*
X193945023Y-113405750D03*
D15*
X187504056Y-118261051D03*
D19*
X192787032Y-107159777D03*
D20*
X181030477Y-107320717D03*
D15*
X182944678Y-115324714D03*
X192792756Y-117061195D03*
%TD*%
D12*
%TO.C,SW6*%
X129452431Y-99641867D03*
D13*
X129952431Y-95891867D03*
X134952431Y-93691867D03*
D14*
X134952431Y-99891867D03*
D13*
X139952431Y-95891867D03*
D12*
X140452431Y-99641867D03*
D15*
X134952431Y-105541867D03*
D16*
X138227431Y-93691867D03*
D17*
X126677431Y-95891867D03*
D15*
X129952431Y-103441867D03*
X139952431Y-103441867D03*
%TD*%
D10*
%TO.C,JP6*%
X98224743Y-105249425D03*
X98224743Y-106250185D03*
%TD*%
D11*
%TO.C,D2*%
X115290000Y-90370000D03*
X118690000Y-90370000D03*
%TD*%
%TO.C,D5*%
X133220000Y-85670000D03*
X136620000Y-85670000D03*
%TD*%
D10*
%TO.C,JP4*%
X105800000Y-106255185D03*
X105800000Y-105254425D03*
%TD*%
D12*
%TO.C,SW13*%
X165450692Y-102680303D03*
D13*
X166211061Y-98974316D03*
X171352345Y-97128458D03*
D14*
X170919855Y-103313355D03*
D13*
X176186701Y-99671881D03*
D12*
X176423896Y-103447625D03*
D15*
X170525731Y-108949592D03*
D21*
X174619367Y-97356910D03*
D22*
X162944038Y-98745864D03*
D15*
X165684399Y-106505925D03*
X175660040Y-107203490D03*
%TD*%
D23*
%TO.C,H2*%
X202200000Y-108900000D03*
%TD*%
D18*
%TO.C,D16*%
X186378343Y-115131235D03*
X189726689Y-115721639D03*
%TD*%
D12*
%TO.C,SW9*%
X147444862Y-75334448D03*
D13*
X147944862Y-71584448D03*
X152944862Y-69384448D03*
D14*
X152944862Y-75584448D03*
D13*
X157944862Y-71584448D03*
D12*
X158444862Y-75334448D03*
D15*
X152944862Y-81234448D03*
D16*
X156219862Y-69384448D03*
D17*
X144669862Y-71584448D03*
D15*
X147944862Y-79134448D03*
X157944862Y-79134448D03*
%TD*%
D23*
%TO.C,H3*%
X89700000Y-116700000D03*
%TD*%
D12*
%TO.C,SW11*%
X167814407Y-68776914D03*
D13*
X168574776Y-65070927D03*
X173716060Y-63225069D03*
D14*
X173283570Y-69409966D03*
D13*
X178550416Y-65768492D03*
D12*
X178787611Y-69544236D03*
D15*
X172889446Y-75046203D03*
D21*
X176983082Y-63453521D03*
D22*
X165307753Y-64842475D03*
D15*
X168048114Y-72602536D03*
X178023755Y-73300101D03*
%TD*%
D12*
%TO.C,SW12*%
X166614904Y-85746250D03*
D13*
X167375273Y-82040263D03*
X172516557Y-80194405D03*
D14*
X172084067Y-86379302D03*
D13*
X177350913Y-82737828D03*
D12*
X177588108Y-86513572D03*
D15*
X171689943Y-92015539D03*
D21*
X175783579Y-80422857D03*
D22*
X164108250Y-81811811D03*
D15*
X166848611Y-89571872D03*
X176824252Y-90269437D03*
%TD*%
D12*
%TO.C,SW10*%
X147444862Y-92339060D03*
D13*
X147944862Y-88589060D03*
X152944862Y-86389060D03*
D14*
X152944862Y-92589060D03*
D13*
X157944862Y-88589060D03*
D12*
X158444862Y-92339060D03*
D15*
X152944862Y-98239060D03*
D16*
X156219862Y-86389060D03*
D17*
X144669862Y-88589060D03*
D15*
X147944862Y-96139060D03*
X157944862Y-96139060D03*
%TD*%
D12*
%TO.C,SW3*%
X92497995Y-127541487D03*
D13*
X92471231Y-123758395D03*
X97116389Y-120883940D03*
D14*
X97979262Y-127023602D03*
D13*
X102373910Y-122366664D03*
D12*
X103390943Y-126010583D03*
D15*
X98765590Y-132618617D03*
D24*
X100359517Y-120428148D03*
D25*
X89228102Y-124214187D03*
D15*
X93521986Y-131234919D03*
X103424667Y-129843188D03*
%TD*%
D11*
%TO.C,D9*%
X151270000Y-78380000D03*
X154670000Y-78380000D03*
%TD*%
D23*
%TO.C,H4*%
X105000000Y-74200000D03*
%TD*%
D26*
%TO.C,D12*%
X170228282Y-88972828D03*
X173620000Y-89210000D03*
%TD*%
D27*
%TO.C,RESET1*%
X107050000Y-88100000D03*
X107050000Y-94700000D03*
X102950000Y-88100000D03*
X102950000Y-94700000D03*
%TD*%
D18*
%TO.C,D15*%
X189329997Y-98340831D03*
X192678343Y-98931235D03*
%TD*%
D11*
%TO.C,D10*%
X151270000Y-95380000D03*
X154670000Y-95380000D03*
%TD*%
D28*
%TO.C,D3*%
X96683088Y-129897188D03*
X100050000Y-129424000D03*
%TD*%
D29*
%TO.C,D7*%
X115438282Y-127901172D03*
X118830000Y-127664000D03*
%TD*%
D12*
%TO.C,SW14*%
X203807073Y-97880287D03*
D13*
X204950658Y-94274082D03*
X210256723Y-92975746D03*
D14*
X209180104Y-99081554D03*
D13*
X214798735Y-96010564D03*
D12*
X214639959Y-99790417D03*
D15*
X208198992Y-104645718D03*
D19*
X213481968Y-93544444D03*
D20*
X201725413Y-93705384D03*
D15*
X203639614Y-101709381D03*
X213487692Y-103445862D03*
%TD*%
D23*
%TO.C,H1*%
X165500000Y-57350000D03*
%TD*%
D11*
%TO.C,D4*%
X133220000Y-68670000D03*
X136620000Y-68670000D03*
%TD*%
D12*
%TO.C,SW2*%
X111460000Y-87318484D03*
D13*
X111960000Y-83568484D03*
X116960000Y-81368484D03*
D14*
X116960000Y-87568484D03*
D13*
X121960000Y-83568484D03*
D12*
X122460000Y-87318484D03*
D15*
X116960000Y-93218484D03*
D16*
X120235000Y-81368484D03*
D17*
X108685000Y-83568484D03*
D15*
X111960000Y-91118484D03*
X121960000Y-91118484D03*
%TD*%
D12*
%TO.C,SW4*%
X129452431Y-65632647D03*
D13*
X129952431Y-61882647D03*
X134952431Y-59682647D03*
D14*
X134952431Y-65882647D03*
D13*
X139952431Y-61882647D03*
D12*
X140452431Y-65632647D03*
D15*
X134952431Y-71532647D03*
D16*
X138227431Y-59682647D03*
D17*
X126677431Y-61882647D03*
D15*
X129952431Y-69432647D03*
X139952431Y-69432647D03*
%TD*%
D10*
%TO.C,JP8*%
X100749743Y-105254425D03*
X100749743Y-106255185D03*
%TD*%
D11*
%TO.C,D1*%
X115290000Y-73270000D03*
X118690000Y-73270000D03*
%TD*%
D26*
%TO.C,D11*%
X171428282Y-71972828D03*
X174820000Y-72210000D03*
%TD*%
D30*
%TO.C,BT1*%
X131500002Y-110307899D03*
X127999998Y-110307899D03*
D31*
X130350000Y-114082900D03*
X129150001Y-114082900D03*
%TD*%
D12*
%TO.C,SW1*%
X111460000Y-70313872D03*
D13*
X111960000Y-66563872D03*
X116960000Y-64363872D03*
D14*
X116960000Y-70563872D03*
D13*
X121960000Y-66563872D03*
D12*
X122460000Y-70313872D03*
D15*
X116960000Y-76213872D03*
D16*
X120235000Y-64363872D03*
D17*
X108685000Y-66563872D03*
D15*
X111960000Y-74113872D03*
X121960000Y-74113872D03*
%TD*%
D12*
%TO.C,SW7*%
X111467538Y-125088243D03*
D13*
X111770592Y-121317214D03*
X116648601Y-118858549D03*
D14*
X116973084Y-125050052D03*
D13*
X121756888Y-120793854D03*
D12*
X122452462Y-124512547D03*
D15*
X117268782Y-130692309D03*
D32*
X119919113Y-118687149D03*
D33*
X108500081Y-121488614D03*
D15*
X112165729Y-128856867D03*
X122152024Y-128333507D03*
%TD*%
D34*
%TO.C,SW_PWR1*%
X103325000Y-78312500D03*
D35*
X103325000Y-80662500D03*
X103325000Y-83662500D03*
D34*
X103325000Y-86262500D03*
D36*
X105225000Y-79912500D03*
X105225000Y-82912500D03*
X105225000Y-84412500D03*
%TD*%
D10*
%TO.C,JP2*%
X108325000Y-106255185D03*
X108325000Y-105254425D03*
%TD*%
D12*
%TO.C,SW5*%
X129452431Y-82637259D03*
D13*
X129952431Y-78887259D03*
X134952431Y-76687259D03*
D14*
X134952431Y-82887259D03*
D13*
X139952431Y-78887259D03*
D12*
X140452431Y-82637259D03*
D15*
X134952431Y-88537259D03*
D16*
X138227431Y-76687259D03*
D17*
X126677431Y-78887259D03*
D15*
X129952431Y-86437259D03*
X139952431Y-86437259D03*
%TD*%
D37*
%TO.C,U1*%
X95602743Y-113567609D03*
X98142743Y-113567609D03*
X100682743Y-113567609D03*
X103222743Y-113567609D03*
X105762743Y-113567609D03*
X108302743Y-113567609D03*
X110842743Y-113567609D03*
X113382743Y-113567609D03*
X115922743Y-113567609D03*
X118462743Y-113567609D03*
X121002743Y-113567609D03*
X123542743Y-113567609D03*
X95602743Y-98327609D03*
X98142743Y-98327609D03*
X100682743Y-98327609D03*
X103222743Y-98327609D03*
X105762743Y-98327609D03*
X108302743Y-98327609D03*
X110842743Y-98327609D03*
X113382743Y-98327609D03*
X115922743Y-98327609D03*
X118462743Y-98327609D03*
X121002743Y-98327609D03*
X123542743Y-98327609D03*
%TD*%
D26*
%TO.C,D13*%
X169032423Y-105954242D03*
X172424141Y-106191414D03*
%TD*%
D12*
%TO.C,SW15*%
X186075596Y-94753239D03*
D13*
X187219181Y-91147034D03*
X192525246Y-89848698D03*
D14*
X191448627Y-95954506D03*
D13*
X197067258Y-92883516D03*
D12*
X196908482Y-96663369D03*
D15*
X190467515Y-101518670D03*
D19*
X195750491Y-90417396D03*
D20*
X183993936Y-90578336D03*
D15*
X185908137Y-98582333D03*
X195756215Y-100318814D03*
%TD*%
M02*
